<?xml version="1.0" standalone="no"?>
<!DOCTYPE svg PUBLIC "-//W3C//DTD SVG 20010904//EN"
 "http://www.w3.org/TR/2001/REC-SVG-20010904/DTD/svg10.dtd">
<svg version="1.0" xmlns="http://www.w3.org/2000/svg"
 width="512.000000pt" height="512.000000pt" viewBox="0 0 512.000000 512.000000"
 preserveAspectRatio="xMidYMid meet">

<g transform="translate(0.000000,512.000000) scale(0.100000,-0.100000)"
fill="#000000" stroke="none">
<path d="M2459 5104 c-26 -8 -68 -29 -93 -46 -52 -37 -2086 -2183 -2121 -2239
-91 -142 -64 -327 65 -443 112 -101 288 -114 415 -31 22 15 443 453 935 975
492 522 897 948 900 948 3 0 381 -398 840 -884 459 -486 868 -918 909 -959
104 -104 158 -130 276 -130 104 0 156 19 225 81 75 68 120 166 120 259 0 53
-25 138 -55 184 -35 56 -2069 2202 -2121 2238 -84 60 -197 78 -295 47z"/>
<path d="M2459 2815 c-26 -8 -68 -30 -94 -47 -26 -18 -512 -525 -1081 -1127
-1119 -1184 -1079 -1137 -1091 -1264 -28 -300 337 -492 562 -296 21 19 435
453 919 964 484 512 883 930 886 930 3 0 370 -385 814 -855 445 -470 854 -901
910 -958 130 -132 176 -157 296 -157 76 0 92 4 152 33 77 38 130 92 167 171
22 47 26 69 26 141 -1 71 -5 94 -28 141 -22 46 -221 261 -1074 1163 -976 1032
-1052 1109 -1110 1138 -77 37 -180 47 -254 23z"/>
</g>
</svg>
