<?xml version="1.0" encoding="UTF-8"?>
<svg version="1.1" xmlns="http://www.w3.org/2000/svg" width="512" height="512">
<path d="M0 0 C3.80795933 3.84721664 5.62892046 8.08681085 5.83984375 13.48828125 C5.32274247 21.37739059 1.03642318 26.15722252 -4.46166992 31.61035156 C-5.22091515 32.36762543 -5.22091515 32.36762543 -5.99549866 33.14019775 C-7.65258339 34.79084446 -9.31652984 36.43439058 -10.98046875 38.078125 C-12.13871907 39.23009857 -13.29645152 40.38259304 -14.45368958 41.5355835 C-17.4887504 44.55739232 -20.52934314 47.57356684 -23.57159424 50.58813477 C-28.45247784 55.42575124 -33.32651325 60.27024508 -38.19741249 65.11791229 C-39.89960477 66.80987142 -41.60516075 68.49838513 -43.31108093 70.18658447 C-44.3496722 71.21835074 -45.38815574 72.25022547 -46.42651367 73.28222656 C-47.33600266 74.18346252 -48.24549164 75.08469849 -49.18254089 76.01324463 C-51.79267188 78.75820404 -52.19660516 79.63219369 -52.5625 83.4375 C-51.88488803 91.56884363 -44.75139683 97.0271864 -39.25073242 102.50244141 C-37.81076213 103.93923404 -36.38468528 105.38890703 -34.95898438 106.83984375 C-34.04568359 107.75378906 -33.13238281 108.66773438 -32.19140625 109.609375 C-31.36326416 110.44049805 -30.53512207 111.27162109 -29.68188477 112.12792969 C-26.39226948 114.91391449 -23.74848797 116.15420027 -19.4375 116.25 C-11.24035745 113.51761915 -4.80039326 104.84308472 1.11665726 98.83487701 C2.6363405 97.29283533 4.16024196 95.7550766 5.68539429 94.21844482 C10.0153639 89.85518017 14.34088063 85.48757166 18.65625 81.10986328 C21.31090718 78.4174608 23.97291021 75.73250932 26.6396904 73.05211639 C27.64793379 72.03585712 28.65340133 71.0168356 29.65593338 69.99494171 C31.05739137 68.56685959 32.46918394 67.14894194 33.88134766 65.73144531 C34.6788443 64.92427063 35.47634094 64.11709595 36.29800415 63.28546143 C41.62664112 58.72620623 46.2375109 57.61601122 53.06640625 57.84765625 C57.91536903 58.46171704 60.96733637 60.1102225 64.14453125 63.8125 C76.79688781 82.16032824 76.21550513 110.55725234 72.62084961 131.61450195 C67.33514071 157.70992445 54.24070504 182.38772699 32.16796875 198.015625 C3.50475791 216.87839608 -29.08727103 219.68420875 -62.25 213.1875 C-63.71512399 212.83334122 -65.17762612 212.46808365 -66.63671875 212.08984375 C-70.82905614 211.04289247 -73.10665057 210.92969749 -77.25 212.1875 C-83.72069175 216.43080766 -88.74807055 222.84819728 -93.921875 228.5390625 C-97.42944159 232.39654762 -100.99201407 236.20080296 -104.5625 240 C-105.1915625 240.67015137 -105.820625 241.34030273 -106.46875 242.03076172 C-107.75306794 243.39893883 -109.03757407 244.76693932 -110.32226562 246.13476562 C-113.48727921 249.50500805 -116.65007856 252.87732538 -119.8125 256.25 C-120.43358643 256.91233643 -121.05467285 257.57467285 -121.69458008 258.25708008 C-125.88582025 262.72821003 -130.0699391 267.20591878 -134.25 271.6875 C-142.19881169 280.20968329 -150.17212655 288.70881882 -158.14550781 297.20800781 C-165.43369848 304.97731679 -172.71506934 312.75281134 -179.98071289 320.54321289 C-184.85960084 325.7729915 -189.75116432 330.99080299 -194.64453125 336.20703125 C-198.8530107 340.69433335 -203.05404119 345.18848986 -207.25 349.6875 C-212.67700154 355.50602258 -218.11095927 361.31795554 -223.55883789 367.11694336 C-226.80146168 370.56942116 -230.03395782 374.0305451 -233.25 377.5078125 C-233.90943604 378.2181665 -234.56887207 378.92852051 -235.24829102 379.66040039 C-236.49420733 381.00294071 -237.73714463 382.34825521 -238.97631836 383.69702148 C-250.12848503 395.68861539 -262.84516461 404.5134733 -279.671875 405.50390625 C-296.70467955 406.11074301 -310.30515289 402.13455385 -323.4375 390.9375 C-334.93169581 380.14592744 -341.16331242 366.59768721 -342.43359375 350.921875 C-342.96800776 333.44339311 -336.17525722 318.87289727 -324.46484375 306.265625 C-321.62348836 303.34012925 -318.62960302 300.62427324 -315.54296875 297.9609375 C-311.28106658 294.2448682 -307.1637872 290.39162456 -303.0625 286.5 C-297.96297514 281.68011397 -292.85343727 276.87368535 -287.6875 272.125 C-282.84768562 267.6746222 -278.04225778 263.18904262 -273.25 258.6875 C-267.89462823 253.65762091 -262.51861103 248.6519037 -257.11328125 243.67578125 C-252.9754898 239.86412115 -248.85984858 236.02925806 -244.75 232.1875 C-239.57227508 227.34786909 -234.3767974 222.52844145 -229.1640625 217.7265625 C-225.01028843 213.89698543 -220.87745863 210.04541031 -216.75 206.1875 C-211.57225349 201.34789204 -206.37679757 196.52844161 -201.1640625 191.7265625 C-197.01028843 187.89698543 -192.87745863 184.04541031 -188.75 180.1875 C-184.09739156 175.83873538 -179.43356472 171.50290535 -174.75 167.1875 C-173.15735883 165.71733155 -171.5649854 164.24687357 -169.97265625 162.77636719 C-168.75237276 161.65085628 -167.5308986 160.52663569 -166.30859375 159.40332031 C-164.28578575 157.54323338 -162.26759768 155.67823549 -160.25 153.8125 C-159.62673828 153.24144531 -159.00347656 152.67039063 -158.36132812 152.08203125 C-156.62977673 150.47644505 -154.9314028 148.84543662 -153.25 147.1875 C-152.73953125 146.69217773 -152.2290625 146.19685547 -151.703125 145.68652344 C-149.27023226 143.10499189 -148.28339056 141.44048612 -147.81640625 137.90234375 C-148.33760177 133.43696593 -149.18236536 129.12876994 -150.1875 124.75 C-157.19456056 93.72580607 -154.23739325 61.52392642 -137.25 34.1875 C-119.52067702 9.81367399 -94.40567468 -3.99330188 -65.25 -9.8125 C-45.5643782 -12.70201002 -16.60560258 -12.75754019 0 0 Z " fill="#D4AF37" transform="translate(437.25,58.8125)"/>
<path d="M0 0 C16.2610216 13.96153357 16.2610216 13.96153357 17.23828125 23.26953125 C17.4079021 29.08127736 16.99969908 32.45980104 13 37 C8.07100411 41.34221067 5.32749916 42.27121776 -1.1015625 42.234375 C-4.15260143 41.98766026 -6.80847958 41.33592806 -9.75 40.5 C-24.96714319 36.40307683 -39.14682491 39.80577868 -52.7890625 46.98828125 C-60.65476526 51.9163067 -65.87815911 58.9291302 -68 68 C-69.51742149 80.07614603 -65.09121207 88.09618319 -58 97.5 C-54.48854954 102.19896457 -51.02907549 106.87314676 -47.90234375 111.83984375 C-42.25098905 121.399781 -42.25098905 121.399781 -32.75 126.25 C-31.76773438 126.36988281 -30.78546875 126.48976562 -29.7734375 126.61328125 C-25.55617792 127.20132167 -22.14421791 129.15407969 -19 132 C-18.30708167 133.31988121 -17.6371408 134.65230796 -17 136 C-17.48251221 136.41612549 -17.96502441 136.83225098 -18.4621582 137.26098633 C-23.48552551 141.62094713 -28.36286957 146.10951037 -33.1875 150.6875 C-38.28702366 155.50738489 -43.39649769 160.31388655 -48.5625 165.0625 C-52.74544285 168.90790672 -56.90369534 172.77806711 -61.04394531 176.66943359 C-63.73616264 179.19930933 -66.43359215 181.72359108 -69.13134766 184.24755859 C-70.87760335 185.88521517 -72.61674524 187.53013827 -74.35546875 189.17578125 C-75.34070571 190.09682519 -76.32635161 191.01743198 -77.3125 191.9375 C-78.15425781 192.73027344 -78.99601563 193.52304687 -79.86328125 194.33984375 C-82 196 -82 196 -85 196 C-88.08494059 190.67788875 -90.14028326 186.24263838 -90.625 180.0625 C-91.69309332 172.07234034 -97.20990014 167.96407738 -103 163 C-103.64066406 162.41089844 -104.28132812 161.82179687 -104.94140625 161.21484375 C-106.91606859 159.41688497 -108.94683114 157.70820996 -111 156 C-111.57411621 155.51740723 -112.14823242 155.03481445 -112.73974609 154.53759766 C-127.29385188 141.84066426 -127.29385188 141.84066426 -145 135 C-145.33 135.66 -145.66 136.32 -146 137 C-145.525625 138.19625 -145.05125 139.3925 -144.5625 140.625 C-142.36679387 146.26674493 -142.09803877 151.23837557 -144.20703125 156.90625 C-147.34560232 163.707764 -152.99405899 168.62613231 -158.28808594 173.77514648 C-160.11190015 175.54975359 -161.91655824 177.34213655 -163.71875 179.13867188 C-183.56218041 198.79165878 -183.56218041 198.79165878 -194.21484375 199.0546875 C-205.11005011 198.49595897 -211.8425218 190.53190547 -219 183.125 C-224.14222644 177.85032228 -229.26517447 172.68719966 -234.86083984 167.89453125 C-239.00529993 164.22402106 -242.91676551 160.30774408 -246.83813477 156.40209961 C-248.32063948 154.92941443 -249.81349769 153.46774764 -251.30664062 152.00585938 C-252.26367589 151.0553466 -253.22007905 150.10419686 -254.17578125 149.15234375 C-255.45835815 147.8837854 -255.45835815 147.8837854 -256.7668457 146.58959961 C-260.96688883 141.71916587 -262.44310971 137.51093487 -262.5 131.125 C-262.5309375 129.97257813 -262.561875 128.82015625 -262.59375 127.6328125 C-261.14566478 118.77281741 -254.37616515 112.96263312 -248.1875 106.9375 C-247.41857422 106.17373047 -246.64964844 105.40996094 -245.85742188 104.62304688 C-241.62322672 100.44602229 -237.29918805 96.43030631 -232.76269531 92.58325195 C-230.89580307 90.90641038 -229.23561488 89.11858416 -227.5625 87.25 C-222.79723296 82.41975205 -217.23569482 81.11018861 -210.625 80.625 C-206.90906186 80.41620316 -206.90906186 80.41620316 -205.3671875 77.7734375 C-204.0862201 75.17490363 -203.28000504 72.78088754 -202.5 70 C-200.00973237 62.8753347 -195.30790062 57.91016769 -190.29833984 52.42919922 C-188.65194193 50.61686123 -187.07975914 48.74546542 -185.5 46.875 C-143.84685188 -0.09557128 -57.66633112 -45.58568799 0 0 Z " fill="#D4AF37" transform="translate(262,66)"/>
<path d="M0 0 C3.42768661 0.58763037 5.12590397 1.7315889 7.609375 4.1328125 C8.28226562 4.77476562 8.95515625 5.41671875 9.6484375 6.078125 C10.34195313 6.75359375 11.03546875 7.4290625 11.75 8.125 C13.11849123 9.44145734 14.48828177 10.75656537 15.859375 12.0703125 C16.54257812 12.72547852 17.22578125 13.38064453 17.9296875 14.05566406 C20.59323759 16.55713965 23.34066126 18.95148366 26.10253906 21.34326172 C28.95743647 23.83597065 31.72781044 26.41613272 34.5 29 C38.63112109 32.8321857 42.79043491 36.61639565 47.0546875 40.30078125 C49.3366529 42.29406428 51.57228574 44.33493027 53.8125 46.375 C57.29684862 49.52318635 60.85031795 52.54525036 64.5 55.5 C85.63074143 72.7398117 85.63074143 72.7398117 87 86 C87.34522664 99.48414646 80.87938539 107.61946399 72 117 C68.13895627 121.0322272 64.22074802 125.0064476 60.27978516 128.96044922 C58.49566548 130.7543583 56.72252193 132.55868736 54.94921875 134.36328125 C45.63826895 143.76311066 37.19738519 152.21776223 23.1875 152.375 C11.6840938 152.16936603 5.17036849 147.38872199 -2.60058594 139.34277344 C-8.60824066 133.04951434 -14.50357864 126.65750148 -20.18359375 120.06640625 C-24.17314501 115.52775546 -28.3194141 111.12735249 -32.42822266 106.69677734 C-34.42660219 104.53947108 -36.41886463 102.37657152 -38.41113281 100.21362305 C-43.40447766 94.79472796 -48.41520317 89.39206888 -53.4375 84 C-54.01677246 83.37689941 -54.59604492 82.75379883 -55.19287109 82.11181641 C-58.39954248 78.6737646 -61.65374444 75.30247277 -65 72 C-63.42291724 68.28259064 -61.11882687 65.75113029 -58.375 62.8125 C-57.89844971 62.29985596 -57.42189941 61.78721191 -56.9309082 61.2590332 C-55.29280535 59.50075964 -53.64704487 57.7498987 -52 56 C-51.38721191 55.34741211 -50.77442383 54.69482422 -50.14306641 54.02246094 C-46.7818169 50.44334482 -43.41586203 46.86870783 -40.046875 43.296875 C-35.76007166 38.74952521 -31.4947129 34.18245208 -27.23486328 29.60986328 C-24.17728279 26.32896165 -21.11318508 23.0544771 -18.0390625 19.7890625 C-17.37527588 19.08338135 -16.71148926 18.3777002 -16.02758789 17.65063477 C-14.76490763 16.30888992 -13.50116195 14.96814648 -12.23608398 13.62866211 C-8.04913231 9.17738121 -3.99635011 4.62298998 0 0 Z " fill="#D4AF37" transform="translate(361,312)"/>
</svg>
