<?xml version="1.0" standalone="no"?>
<!DOCTYPE svg PUBLIC "-//W3C//DTD SVG 20010904//EN"
 "http://www.w3.org/TR/2001/REC-SVG-20010904/DTD/svg10.dtd">
<svg version="1.0" xmlns="http://www.w3.org/2000/svg"
 width="512.000000pt" height="512.000000pt" viewBox="0 0 512.000000 512.000000"
 preserveAspectRatio="xMidYMid meet">

<g transform="translate(0.000000,512.000000) scale(0.100000,-0.100000)"
fill="#000000" stroke="none">
<path d="M1145 5104 c-79 -12 -93 -17 -117 -44 -21 -23 -28 -41 -28 -72 0 -42
2 -44 340 -383 l340 -340 -73 -340 -73 -339 -339 -73 -340 -73 -340 340 c-336
335 -342 340 -382 340 -49 0 -87 -27 -102 -73 -37 -117 -38 -365 -1 -545 127
-623 679 -1072 1316 -1072 97 0 256 19 324 40 l35 10 1185 -1184 1185 -1184
85 -40 c195 -93 401 -94 585 -3 230 114 375 346 375 597 0 121 -48 273 -121
381 -17 26 -554 571 -1192 1209 l-1160 1162 17 88 c23 120 31 328 17 436 -34
255 -131 481 -291 681 -122 150 -271 268 -455 358 -249 121 -523 164 -790 123z"/>
</g>
</svg>
